<?xml version="1.0" encoding="utf-8"?>
<!-- Generator: Adobe Illustrator 21.1.0, SVG Export Plug-In . SVG Version: 6.00 Build 0)  -->
<svg version="1.2" baseProfile="tiny" id="Capa_1" xmlns="http://www.w3.org/2000/svg" xmlns:xlink="http://www.w3.org/1999/xlink"
	 x="0px" y="0px" viewBox="0 0 512 512" overflow="scroll" xml:space="preserve">
<circle fill="#3B9CFF" cx="256" cy="256.3" r="253.2"/>
<g>
	<path fill="#FCFCFC" d="M347.1,232.1c2.5-8.4,3.8-17.3,3.8-26.6c0-52.4-42.5-94.9-94.9-94.9c-52.4,0-94.9,42.5-94.9,94.9
		c0,9.2,1.4,18.1,3.8,26.6c-12,9.6-58.4,51.2-39.3,105.2c0,0,16.1-1.4,29.4-25.9c4,15.7,11.5,30,21.8,41.9
		c-15,4.4-25.2,13-25.2,22.8c0,14.3,21.6,26,48.3,26c18.1,0,33.9-5.4,42.2-13.3c4.6,0.6,9.1,1,13.9,1c4.7,0,9.3-0.4,13.9-1
		c8.3,7.9,24,13.3,42.2,13.3c26.7,0,48.3-11.6,48.3-26c0-9.8-10.2-18.4-25.2-22.8c10.2-11.9,17.7-26.2,21.8-41.9
		c13.3,24.5,29.4,25.9,29.4,25.9C405.5,283.3,359.1,241.7,347.1,232.1z"/>
</g>
</svg>
