<?xml version="1.0" encoding="utf-8"?>
<!-- Generator: Adobe Illustrator 21.1.0, SVG Export Plug-In . SVG Version: 6.00 Build 0)  -->
<svg version="1.1" id="Capa_1" xmlns="http://www.w3.org/2000/svg" xmlns:xlink="http://www.w3.org/1999/xlink" x="0px" y="0px"
	 viewBox="0 0 2473.5 2481.5" style="enable-background:new 0 0 2473.5 2481.5;" xml:space="preserve">
<style type="text/css">
	.st0{fill:#FFFFFF;}
	.st1{fill:#E32529;}
</style>
<g>
	<path class="st0" d="M1618.7,1246.2c-21.9-6.6-36.8-11.2-25.4-40.4c24.8-63.4,27.4-118.2,0.5-157.2c-50.4-73.2-188.1-69.3-346-2
		c0-0.1-49.6,22.1-36.9-18c24.3-79.5,20.6-146.1-17.2-184.5c-85.7-87.3-313.5,3.3-508.9,202.1c-146.3,149-231.2,306.8-231.2,443.3
		c0,261.1,328.9,435.7,650.7,435.7c421.8,0,702.5-265.4,702.5-463.5C1806.8,1342.2,1707.7,1274.2,1618.7,1246.2z M1105.1,1808.3
		c-256.8,25.4-478.4-91.2-495.1-260.8c-16.7-169.5,178-327.6,434.8-353.1c256.8-25.6,478.5,91.2,495.1,260.7
		C1556.5,1624.6,1362,1782.7,1105.1,1808.3z M2037.6,1033.6c-0.1-263.7-213.9-477.4-477.6-477.4c-30.8,0-55.7,24.9-55.7,55.7
		c0,30.8,24.9,55.7,55.7,55.7c202.2,0,366.2,163.9,366.2,366.2c0,30.8,25,55.7,55.7,55.7c30.8,0,55.7-24.9,55.7-55.7
		C2037.6,1033.8,2037.6,1033.6,2037.6,1033.6z M1816.2,1025.4c-25.5-124.3-123.5-222.3-247.8-247.8c-30.1-6.2-59.6,13.2-65.8,43.4
		c-6.2,30.1,13.2,59.6,43.3,65.8c80.8,16.6,144.6,80.2,161.1,161.1c6.2,30.1,35.7,49.5,65.8,43.4
		C1803,1084.9,1822.4,1055.5,1816.2,1025.4z M973.4,1360.4c-103.5,20.8-173.2,107.5-155.9,193.7c17.3,86.2,115.2,139.2,218.7,118.4
		c103.4-20.8,173.2-107.5,155.9-193.7C1174.8,1392.6,1076.8,1339.6,973.4,1360.4z"/>
</g>
<circle class="st1" cx="1236.7" cy="1240.7" r="1227.9"/>
<g>
	<path class="st0" d="M1609.9,1246.2c-21.9-6.6-36.8-11.2-25.4-40.4c24.8-63.4,27.4-118.2,0.5-157.2c-50.4-73.2-188.1-69.3-346-2
		c0-0.1-49.6,22.1-36.9-18c24.3-79.5,20.6-146.1-17.2-184.5c-85.7-87.3-313.5,3.3-508.9,202.1c-146.3,149-231.2,306.8-231.2,443.3
		c0,261.1,328.9,435.7,650.7,435.7c421.8,0,702.5-265.4,702.5-463.5C1797.9,1342.2,1698.9,1274.2,1609.9,1246.2z M1096.3,1808.3
		c-256.8,25.4-478.4-91.2-495.1-260.8c-16.7-169.5,178-327.6,434.8-353.1c256.8-25.6,478.5,91.2,495.1,260.7
		C1547.7,1624.6,1353.1,1782.7,1096.3,1808.3z M2028.8,1033.6c-0.1-263.7-213.9-477.4-477.6-477.4c-30.8,0-55.7,24.9-55.7,55.7
		c0,30.8,24.9,55.7,55.7,55.7c202.2,0,366.2,163.9,366.2,366.2c0,30.8,25,55.7,55.7,55.7c30.8,0,55.7-24.9,55.7-55.7
		C2028.8,1033.8,2028.8,1033.6,2028.8,1033.6z M1807.4,1025.4c-25.5-124.3-123.5-222.3-247.8-247.8c-30.1-6.2-59.6,13.2-65.8,43.4
		c-6.2,30.1,13.2,59.6,43.3,65.8c80.8,16.6,144.6,80.2,161.1,161.1c6.2,30.1,35.7,49.5,65.8,43.4
		C1794.1,1084.9,1813.5,1055.5,1807.4,1025.4z M964.6,1360.4c-103.5,20.8-173.2,107.5-155.9,193.7
		c17.3,86.2,115.2,139.2,218.7,118.4c103.4-20.8,173.2-107.5,155.9-193.7C1165.9,1392.6,1068,1339.6,964.6,1360.4z"/>
</g>
<circle class="st1" cx="918.3" cy="1570.1" r="50.3"/>
<circle class="st1" cx="1010.3" cy="1537" r="17.1"/>
<g>
	<path class="st0" d="M961.8,1363.8c-103.5,20.8-173.2,107.5-155.9,193.7c17.3,86.2,115.2,139.2,218.7,118.4
		c103.4-20.8,173.2-107.5,155.9-193.7C1163.1,1396,1065.2,1343,961.8,1363.8z"/>
	<path class="st1" d="M927.2,1489c-42.3,8.5-70.8,44-63.7,79.2c7.1,35.2,47.1,56.9,89.4,48.4c42.3-8.5,70.8-43.9,63.7-79.2
		C1009.5,1502.2,969.5,1480.5,927.2,1489z"/>
	<circle class="st1" cx="1035.7" cy="1487.1" r="25.9"/>
</g>
</svg>
