<?xml version="1.0" encoding="utf-8"?>
<!-- Generator: Adobe Illustrator 21.1.0, SVG Export Plug-In . SVG Version: 6.00 Build 0)  -->
<svg version="1.1" id="圖層_1" xmlns="http://www.w3.org/2000/svg" xmlns:xlink="http://www.w3.org/1999/xlink" x="0px" y="0px"
	 viewBox="0 0 2500 2500" style="enable-background:new 0 0 2500 2500;" xml:space="preserve">
<style type="text/css">
	.st0{fill:#2DC100;}
	.st1{fill:#FFFFFF;}
</style>
<circle class="st0" cx="1250" cy="1251.6" r="1227.9"/>
<g>
	<path class="st1" d="M1553.8,1021.3c-144.8,7.6-270.7,51.5-373,150.6c-103.3,100.2-150.4,223-137.6,375.2
		c-56.6-7-108.2-14.7-160-19.1c-17.9-1.5-39.2,0.6-54.3,9.2c-50.3,28.4-98.6,60.5-155.8,96.2c10.5-47.5,17.3-89,29.3-129
		c8.8-29.4,4.7-45.7-22.3-64.9C506.3,1316.9,433,1133.2,487.9,944.1c50.7-174.9,175.3-281,344.6-336.3
		c231.1-75.5,490.7,1.5,631.3,185C1514.5,859,1545.6,933.4,1553.8,1021.3L1553.8,1021.3z M887.4,962.4c1.3-34.6-28.6-65.7-64.2-66.8
		c-36.4-1.1-66.4,26.8-67.5,62.7c-1.1,36.4,26.8,65.6,63.5,66.5C855.5,1025.7,886,997.9,887.4,962.4L887.4,962.4z M1235.1,895.6
		c-35.7,0.7-65.9,31.1-65.3,65.8c0.7,36,30.3,64.1,67,63.7c36.8-0.4,64.8-28.9,64.4-65.7C1300.9,923.4,1271.4,894.9,1235.1,895.6z"
		/>
	<path class="st1" d="M1879.2,1924.1c-45.9-20.4-87.9-51.1-132.7-55.7c-44.6-4.7-91.5,21.1-138.2,25.8
		c-142.2,14.5-269.5-25.1-374.6-122.2c-199.7-184.7-171.2-468,59.9-619.4c205.4-134.6,506.6-89.7,651.4,97
		c126.4,162.9,111.5,379.2-42.8,516c-44.6,39.6-60.7,72.2-32.1,124.4C1875.5,1899.7,1876.1,1912,1879.2,1924.1L1879.2,1924.1z
		 M1357.2,1418.8c29.2,0,53.2-22.8,54.3-51.6c1.2-30.5-23.4-56.1-54-56.3c-30.3-0.1-55.6,25.8-54.6,55.9
		C1304,1395.5,1328.2,1418.7,1357.2,1418.8L1357.2,1418.8z M1693.7,1311c-28.3-0.2-52.4,23-53.5,51.6c-1.2,30.6,22.6,55.7,52.8,55.8
		c29.3,0.1,52.4-22.1,53.5-51.2C1747.6,1336.5,1723.8,1311.2,1693.7,1311z"/>
</g>
</svg>
